<?xml version="1.0" encoding="utf-8"?>
<!-- Generator: Adobe Illustrator 22.0.1, SVG Export Plug-In . SVG Version: 6.00 Build 0)  -->
<svg version="1.1" id="Calque_1" xmlns="http://www.w3.org/2000/svg" xmlns:xlink="http://www.w3.org/1999/xlink" x="0px" y="0px"
	 viewBox="0 0 1276 1280" style="enable-background:new 0 0 1276 1280;" xml:space="preserve">
<style type="text/css">
	.st0{fill:#EFEFEF;}
</style>
<g transform="translate(0.000000,1280.000000) scale(0.100000,-0.100000)">
	<path class="st0" d="M6085,12793c-780-45-1421-185-2085-453c-1172-474-2173-1282-2892-2335C563,9207,202,8277,65,7316
		c-48-338-59-519-59-921c0-396,11-567,60-905C328,3644,1384,2003,2958,997c878-561,1843-885,2922-979c218-19,821-16,1045,5
		c438,42,832,116,1215,227c1708,494,3133,1684,3930,3280c224,450,349,786,495,1340c145,548,189,888,189,1460c1,415-22,698-90,1105
		c-226,1363-858,2582-1836,3540c-774,760-1678,1286-2723,1585c-548,157-744,190-1390,230C6578,12799,6207,12801,6085,12793z
		 M6607,12750h63l-51-96c-51-95-52-96-62-225c-6-76-6-134-1-139c10-10,176-61,181-56c2,2,11,42,20,89c16,81,20,90,64,133l47,46
		l319-142c175-79,365-166,423-195l105-52l263,21l262,22l73,72c40,40,75,72,79,72c3,0,174-81,380-180l373-180h168h169l96-57
		c296-173,640-420,922-662c113-97,322-293,317-297c-2-2-79,25-173,60c-408,152-682,286-817,398l-48,40l-371,29l-372,30l-83-83
		c-46-45-83-89-83-98c1-8,18-55,39-105l38-90l71-3c40-2,72-6,73-10c0-4,6-63,13-132s12-126,12-127c-1-1-55,30-120,69
		c-93,55-120,68-127,57c-5-8-41-72-81-142c-63-112-75-127-93-122c-11,4-47,9-80,12c-33,2-69,8-80,13s-31,10-45,12c-18,2-30,14-43,41
		c-20,41-27,42-108,27c-36-7-63-20-84-40l-30-29l-45,34c-43,33-49,35-128,35c-89,0-84,3-106-67c-6-19-2-22,44-28l50-7l-45-56
		c-41-53-43-58-30-79c21-31,20-33-23-33c-49,0-171,31-256,65c-74,30-154,34-206,12c-42-17-103-76-234-225l-99-114l79-79l79-79h57
		c32,0,92-10,133-22c64-19,76-26,84-50c11-32,24-33,204-21l98,6l117,93c123,99,123,99,283,126c65,11,66,11,173-32
		c98-39,112-42,164-36c154,18,175,19,168,8c-10-16,21-82,80-172c27-41,72-130,100-196c29-67,75-155,102-197c45-66,52-83,59-148
		c8-71,9-74,33-72c14,2,80-2,148-8s125-9,128-6c3,2-12,31-32,63c-27,44-55,71-110,108c-61,42-75,57-90,95c-9,25-48,126-86,224
		c-39,98-68,180-66,181c1,2,23,11,48,20c52,20,51,21,100-74c16-30,51-89,79-129c49-74,52-76,168-135l118-61l5-86
		c8-130,24-150,170-204l115-42l85,45c121,64,122,65,149,115l25,45l-42,56l-43,56h109h110l85-93c83-90,88-94,231-165
		c118-58,146-76,142-90c-2-9-7-44-11-76l-7-59l88-88l88-89l-34-35c-19-19-37-35-42-35c-23,0-402,177-515,241l-132,74l-223-12
		c-123-7-242-15-264-18l-41-6l4-92c2-51,6-102,8-113c3-15,56-55,168-128c132-86,197-120,340-180c154-64,447-221,463-247
		c3-5,0-55-6-111c-11-94-17-112-64-200c-28-54-54-98-59-98c-4,0-43,24-87,53c-55,37-134,110-262,243l-183,189l-51,1
		c-49,0-55,3-207,123l-157,122l-72-3l-72-3l-21-85l-21-85l-35,3c-64,6-69,10-70,55c0,23-3,50-7,59s-135,112-292,228
		s-284,214-283,216c0,3,30,38,66,78c63,70,68,74,146,96c45,12,81,26,81,30c0,3-21,38-48,76l-47,69l-54,3c-49,3-65,11-172,85l-119,81
		l-115-28l-115-28l-72,58c-39,33-106,88-147,122l-76,64l-97-6c-147-8-290,14-423,64l-110,42l-135-12l-135-12l-145-102l-145-102
		l-135-23c-123-20-141-26-205-66c-38-24-104-53-145-65c-70-20-77-25-115-76l-40-55l-126,6l-125,6l-135-121c-86-78-136-131-141-148
		c-4-15-23-99-44-188l-37-160l-132-140c-128-135-132-141-148-206c-10-39-17-107-17-162c0-91,2-101,50-221c64-161,146-325,328-658
		l147-267l57-35c54-32,67-35,166-41l107-7l138-109c97-75,147-108,165-108c15,0,117-7,227-15s205-15,210-15c6,0,26-25,45-56l34-56
		l52,7l52,6l92-107l93-106l41,5c23,3,59,9,82,12l40,7l26-179l25-178l-63-89c-35-49-97-118-137-153l-74-64l29-167
		c15-93,39-302,52-470c25-302,25-302,5-372c-38-137-38-137-169-224l-119-79l-143-426l-142-426l44-217l44-217l-28-187l-28-188
		l-88-115l-88-116l-7-114c-5-77-15-137-30-182l-23-67l88-26l88-26l100,45l99,45h124h124l208-67l209-67l131,66c73,37,230,125,349,196
		l217,129l107,11c59,7,111,17,115,23c3,6,12,84,20,172l13,161l57,66l58,67l98,12c157,20,163,22,262,105l92,76h78h78l279,250
		c314,282,288,245,319,450c9,58,26,153,39,212c23,106,24,108,131,266l107,159l67,7c36,3,83,6,105,6c24,0,81,19,155,51
		c98,44,150,77,341,217l226,165l74,126c133,227,180,309,180,318c0,5-34,21-75,36l-75,26l-38-40l-37-40l-93,75c-117,95-111,91-120,65
		c-6-14-12,21-20,111c-8,88-9,138-2,150c23,44,12,74-53,142c-73,75-113,151-182,338c-43,116-47,137-61,291c-12,138-12,177-1,230
		c8,43,11,99,6,169c-6,109-2,444,7,516l5,41l75-17c41-10,78-21,81-24c4-4-4-109-18-234l-25-227l48-104l48-103v-177
		c0-268,18-395,80-579l52-152l121-153c66-83,121-154,123-155c1-2,27,15,57,37c53,41,54,41,143,41l89,1l285,315l285,315l17,82
		c9,45,17,89,18,98c0,18-61,105-203,289c-104,134-110,137-193,77c-30-21-58-36-62-33c-3,4-11,47-18,97c-10,75-20,103-56,167
		c-36,63-48,76-65,74c-15-2-28,6-39,23c-14,21-15,40-10,113c4,48,13,114,19,146c12,59,12,60,75,94c35,19,64,33,66,31
		c10-14,110-299,128-368l23-84l135-116c74-64,207-185,295-270l159-154l44-141c25-77,59-211,76-296l32-155l69-27l70-26l-3-199
		c-2-109-15-373-28-587c-14-214-24-390-22-391s22-12,46-24c23-12,42-26,42-31c0-31-108-393-166-556c-243-687-588-1306-1041-1872
		C10364,1240,9034,438,7565,156C7166,80,6815,48,6375,48c-460,0-817,34-1231,117l-162,32l-95,99c-52,55-105,112-118,127
		c-25,29-40,34-1434,469l-260,81l-170,112c-727,478-1338,1090-1818,1821l-106,161l-52,368c-51,367-52,368-89,434
		c-21,36-50,109-66,160l-28,94l17,136c12,99,21,139,33,146c8,6,43,28,77,50l61,40l-2,55c-1,30-5,105-8,165l-5,110l105,77l106,78v107
		v108l241,315c132,173,244,319,249,324c6,6,46-2,102-19l93-27l39,44c25,27,141,231,301,528l261,484l144,29l144,29l41,46
		c80,91,77,84,65,157c-9,53-28,100-98,230l-87,162l-120,75l-120,75l-3,185l-2,184l-178,95l-177,94l2,244l3,244l40,74l41,74l-40,66
		c-38,63-46,70-148,127l-108,61l-24,105l-24,105l17,182c10,100,14,188,9,196c-12,20-224,297-227,297c-2,0-72-27-155-60
		c-148-58-155-60-247-60c-52,0-94,2-94,5c0,11,141,215,242,350c332,445,743,865,1177,1203c185,144,174,139,301,141
		c85,2,151-5,290-30l181-32l37,36c22,21,47,62,60,97c18,46,43,81,101,142l77,81l83,5c72,4,91,9,139,38c66,40,192,90,259,103
		c27,6,181,20,343,32l295,21l31,30c17,16,53,56,80,89c48,58,50,59,99,59c69-1,194-18,227-31c15-6,29-22,33-37c3-14,16-39,27-55
		c16-22,19-39,16-77c-5-44-3-48,12-40c10,5,62,56,115,112c87,93,105,119,184,268l88,165l69,7c38,4,103,10,145,13l76,6l46,82l47,82
		l-43,6l-42,6l50,3c208,12,399,17,505,14C6489,12752,6573,12750,6607,12750z M223,7247c37-149,87-376,111-503l44-231l-8-219l-8-219
		l94-171c52-93,94-175,94-182c0-6-21-85-46-174l-46-163l-11-300l-10-301l61-174c64-181,87-284,156-696l32-192l60-98
		c45-74,74-140,120-276c34-99,58-176,53-171c-14,15-137,240-207,380C366,4249,157,4977,75,5775c-43,416-37,982,15,1400
		c23,178,51,345,59,345C152,7520,186,7397,223,7247z"/>
	<path class="st0" d="M8225,11360l10-130l-85-97c-59-67-95-118-113-162c-15-35-26-65-24-67c4-5,461,17,466,22c7,6-39,152-79,254
		c-21,52-43,131-50,175s-16,86-20,94c-7,13-78,40-105,41C8218,11490,8218,11448,8225,11360z"/>
	<path class="st0" d="M9968,3259l-137-110l-163-11l-163-11l-87-66c-85-64-88-68-118-146c-30-77-36-84-136-173
		c-106-95-138-112-206-112c-42,0-45-5-22-38c15-21,13-25-45-90l-61-67v-82c0-83,0-83,26-83c33,0,335,30,350,35c6,2,139,146,295,320
		c156,175,302,338,324,362c37,41,46,45,110,55c69,11,71,11,153,92c45,44,82,85,82,91c0,17-51,145-58,145
		C10108,3369,10043,3320,9968,3259z"/>
</g>
</svg>
